HIERARCHY
ROOT Hips
{
	OFFSET 0.000000 0.000000 0.000000
	CHANNELS 6 Xposition Yposition Zposition Xrotation Yrotation Zrotation
	JOINT LeftUpLeg_virtual
	{
		OFFSET 0.000000 0.000000 0.000000
		CHANNELS 3 Xrotation Yrotation Zrotation
		JOINT LeftUpLeg
		{
			OFFSET 11.394100 -6.187798 -0.413800
			CHANNELS 3 Xrotation Yrotation Zrotation
			JOINT LeftLeg
			{
				OFFSET 0.430247 -32.302673 3.732800
				CHANNELS 3 Xrotation Yrotation Zrotation
				JOINT LeftFoot
				{
					OFFSET -0.430247 -48.264931 -6.423300
					CHANNELS 3 Xrotation Yrotation Zrotation
					JOINT LeftToeBase
					{
						OFFSET 4.230900 -16.068199 23.438400
						CHANNELS 3 Xrotation Yrotation Zrotation
						JOINT LeftToe_End
						{
							OFFSET 4.510700 0.695400 19.974600
							CHANNELS 3 Xrotation Yrotation Zrotation
							End Site
							{
								OFFSET 0 0 0
							}
						}
					}
				}
			}
		}
	}
	JOINT RightUpLeg_virtual
	{
		OFFSET 0.000000 0.000000 0.000000
		CHANNELS 3 Xrotation Yrotation Zrotation
		JOINT RightUpLeg
		{
			OFFSET -11.333700 -6.187798 -0.413800
			CHANNELS 3 Xrotation Yrotation Zrotation
			JOINT RightLeg
			{
				OFFSET -0.430392 -32.302628 3.733000
				CHANNELS 3 Xrotation Yrotation Zrotation
				JOINT RightFoot
				{
					OFFSET 0.430392 -48.264973 -6.423500
					CHANNELS 3 Xrotation Yrotation Zrotation
					JOINT RightToeBase
					{
						OFFSET -4.230900 -16.068199 23.438400
						CHANNELS 3 Xrotation Yrotation Zrotation
						JOINT RightToe_End
						{
							OFFSET -4.510700 0.695400 19.974600
							CHANNELS 3 Xrotation Yrotation Zrotation
							End Site
							{
								OFFSET 0 0 0
							}
						}
					}
				}
			}
		}
	}
	JOINT Spine_virtual
	{
		OFFSET 0.000000 0.000000 0.000000
		CHANNELS 3 Xrotation Yrotation Zrotation
		JOINT Spine
		{
			OFFSET -0.002400 12.777504 0.315300
			CHANNELS 3 Xrotation Yrotation Zrotation
			JOINT Spine1
			{
				OFFSET -0.002067 5.816869 0.032633
				CHANNELS 3 Xrotation Yrotation Zrotation
				JOINT Spine1_split
				{
					OFFSET -0.002067 5.816869 0.032633
					CHANNELS 3 Xrotation Yrotation Zrotation
					JOINT Spine2
					{
						OFFSET -0.002067 5.816869 0.032633
						CHANNELS 3 Xrotation Yrotation Zrotation
						JOINT Neck_virtual
						{
							OFFSET 0.000000 0.000000 0.000000
							CHANNELS 3 Xrotation Yrotation Zrotation
							JOINT Neck
							{
								OFFSET -0.003700 21.199493 -0.826900
								CHANNELS 3 Xrotation Yrotation Zrotation
								JOINT Head
								{
									OFFSET 0.000000 20.442200 4.834800
									CHANNELS 3 Xrotation Yrotation Zrotation
									JOINT HeadTop_End
									{
										OFFSET 0.000000 34.668396 4.968400
										CHANNELS 3 Xrotation Yrotation Zrotation
										End Site
										{
											OFFSET 0 0 0
										}
									}
								}
							}
						}
						JOINT LeftShoulder_virtual
						{
							OFFSET 0.000000 0.000000 0.000000
							CHANNELS 3 Xrotation Yrotation Zrotation
							JOINT LeftShoulder
							{
								OFFSET 3.288150 8.794197 -1.372250
								CHANNELS 3 Xrotation Yrotation Zrotation
								JOINT LeftShoulder_split
								{
									OFFSET 3.288150 8.794197 -1.372250
									CHANNELS 3 Xrotation Yrotation Zrotation
									JOINT LeftArm
									{
										OFFSET 11.953299 -2.279007 -0.146200
										CHANNELS 3 Xrotation Yrotation Zrotation
										JOINT LeftForeArm
										{
											OFFSET 18.448900 0.000000 0.000000
											CHANNELS 3 Xrotation Yrotation Zrotation
											JOINT LeftHand
											{
												OFFSET 29.527798 0.000000 0.000000
												CHANNELS 3 Xrotation Yrotation Zrotation
												End Site
												{
													OFFSET 0 0 0
												}
											}
										}
									}
								}
							}
						}
						JOINT RightShoulder_virtual
						{
							OFFSET 0.000000 0.000000 0.000000
							CHANNELS 3 Xrotation Yrotation Zrotation
							JOINT RightShoulder
							{
								OFFSET -3.249400 8.794197 -1.372250
								CHANNELS 3 Xrotation Yrotation Zrotation
								JOINT RightShoulder_split
								{
									OFFSET -3.249400 8.794197 -1.372250
									CHANNELS 3 Xrotation Yrotation Zrotation
									JOINT RightArm
									{
										OFFSET -11.953299 -2.279007 -0.146200
										CHANNELS 3 Xrotation Yrotation Zrotation
										JOINT RightForeArm
										{
											OFFSET -18.448900 0.000000 0.000000
											CHANNELS 3 Xrotation Yrotation Zrotation
											JOINT RightHand
											{
												OFFSET -29.527802 0.000000 0.000000
												CHANNELS 3 Xrotation Yrotation Zrotation
												End Site
												{
													OFFSET 0 0 0
												}
											}
										}
									}
								}
							}
						}
					}
				}
			}
		}
	}
}
MOTION
Frames: 10
Frame Time: 0.03333333
1.227062 13.859810 -3.009361 0.000000 0.000000 0.000000 -90.077006 -3.313630 -1.372694 -26.774253 11.740725 -2.301010 29.477611 -7.039922 -5.230836 5.809886 7.938328 6.589251 10.329492 -0.295625 2.933119 0.000000 0.000000 0.000000 -91.614557 -3.918806 -4.873599 -12.575434 -6.648828 -5.306897 11.996809 0.447888 3.106034 17.109122 -3.555918 24.102242 -1.980300 -1.185958 1.367684 0.000000 0.000000 0.000000 -87.854449 -3.956317 -4.503101 3.972322 2.658325 0.789110 -1.367873 1.090964 -0.106576 0.436603 0.921791 -0.315825 0.000000 0.000000 0.000000 -2.095499 0.548272 0.167333 2.835508 1.519991 -0.001923 7.299640 1.682049 12.578383 0.000000 0.000000 0.000000 -2.914115 1.210656 0.042904 1.110087 -15.528123 -2.323122 -2.967976 0.132017 -4.172764 28.626453 0.201158 -70.804760 -178.672039 -39.751011 -178.404814 0.000000 0.000000 0.000000 -1.948665 0.925137 -0.851753 0.989317 1.393923 0.675889 1.183856 4.427178 0.140984 13.564641 6.465296 72.653303 -179.750375 46.244783 -179.223795 0.000000 0.000000 0.000000 
1.226321 13.855011 -2.993401 0.000000 0.000000 0.000000 -90.078686 -3.306044 -1.366055 -26.803471 11.721326 -2.293737 29.533673 -7.042946 -5.244172 5.782270 7.908136 6.610380 10.329052 -0.298615 2.928551 0.000000 0.000000 0.000000 -91.609666 -3.906568 -4.861315 -12.578052 -6.649596 -5.311942 12.062997 0.430279 3.106328 17.054875 -3.545900 24.122029 -1.938259 -1.185560 1.360980 0.000000 0.000000 0.000000 -87.855453 -3.952362 -4.495851 3.973832 2.650461 0.797928 -1.369131 1.089623 -0.110450 0.445432 0.922020 -0.311020 0.000000 0.000000 0.000000 -2.101511 0.550660 0.166777 2.880341 1.527201 -0.010335 7.347681 1.097248 12.654818 0.000000 0.000000 0.000000 -2.913814 1.209946 0.046832 1.113447 -15.539100 -2.313259 -2.966093 0.156379 -4.188867 28.615037 0.296492 -70.827928 -178.655141 -39.601874 -178.369065 0.000000 0.000000 0.000000 -1.965790 0.918675 -0.850869 0.990190 1.457416 0.666222 1.172406 4.411544 0.142809 13.486378 6.446438 72.707548 -179.749405 46.231064 -179.232333 0.000000 0.000000 0.000000 
1.225633 13.849472 -2.975616 0.000000 0.000000 0.000000 -90.079581 -3.291001 -1.362352 -26.839022 11.714106 -2.281535 29.601210 -7.044827 -5.260000 5.744720 7.873135 6.643426 10.324524 -0.301091 2.926921 0.000000 0.000000 0.000000 -91.610513 -3.889985 -4.855403 -12.569688 -6.650963 -5.313655 12.113250 0.411419 3.107523 17.001732 -3.529875 24.143428 -1.901734 -1.185896 1.355209 0.000000 0.000000 0.000000 -87.854975 -3.948032 -4.493879 3.980303 2.647303 0.815758 -1.370657 1.090848 -0.112211 0.453068 0.916913 -0.314473 0.000000 0.000000 0.000000 -2.105039 0.555820 0.166385 2.912056 1.540194 -0.012900 7.400415 0.617138 12.697274 0.000000 0.000000 0.000000 -2.912078 1.211984 0.052747 1.113090 -15.542084 -2.325083 -2.949846 0.175845 -4.195202 28.536025 0.377487 -70.830844 -178.640784 -39.482954 -178.340064 0.000000 0.000000 0.000000 -1.980012 0.915062 -0.850081 0.991906 1.504093 0.662312 1.159682 4.402885 0.147624 13.412865 6.454842 72.769594 -179.752137 46.243505 -179.232592 0.000000 0.000000 0.000000 
1.226147 13.846260 -2.955463 0.000000 0.000000 0.000000 -90.077873 -3.271148 -1.358986 -26.876402 11.712969 -2.269712 29.667876 -7.050552 -5.274876 5.705239 7.831244 6.679164 10.317685 -0.303330 2.929702 0.000000 0.000000 0.000000 -91.613478 -3.872656 -4.854310 -12.548488 -6.651388 -5.316425 12.140914 0.391409 3.109955 16.954485 -3.506802 24.173735 -1.875527 -1.187302 1.349574 0.000000 0.000000 0.000000 -87.852851 -3.943679 -4.493466 3.990485 2.648602 0.835657 -1.371257 1.095218 -0.111870 0.451137 0.911164 -0.322143 0.000000 0.000000 0.000000 -2.105093 0.564229 0.166072 2.925144 1.547267 -0.003373 7.449077 0.210626 12.724174 0.000000 0.000000 0.000000 -2.907872 1.217872 0.059347 1.110626 -15.542389 -2.357103 -2.925256 0.189779 -4.181911 28.430888 0.414281 -70.817724 -178.632068 -39.440313 -178.322278 0.000000 0.000000 0.000000 -1.988330 0.915530 -0.849577 0.993366 1.528402 0.660588 1.143945 4.396276 0.148909 13.346924 6.478575 72.825342 -179.758189 46.254133 -179.228276 0.000000 0.000000 0.000000 
1.226671 13.845886 -2.935940 0.000000 0.000000 0.000000 -90.074096 -3.252410 -1.357094 -26.913073 11.710997 -2.262503 29.728248 -7.068023 -5.284535 5.675167 7.779723 6.706277 10.311137 -0.305724 2.937130 0.000000 0.000000 0.000000 -91.614434 -3.856268 -4.854582 -12.517449 -6.651612 -5.322669 12.150457 0.369534 3.113281 16.909631 -3.479576 24.218215 -1.858037 -1.189856 1.344111 0.000000 0.000000 0.000000 -87.848623 -3.938822 -4.491835 4.003450 2.653584 0.851591 -1.369953 1.103771 -0.109517 0.444545 0.899696 -0.326496 0.000000 0.000000 0.000000 -2.102088 0.575413 0.165763 2.919808 1.541307 0.017542 7.492306 -0.147077 12.748893 0.000000 0.000000 0.000000 -2.900891 1.226476 0.064425 1.109281 -15.541423 -2.399499 -2.898351 0.199443 -4.160318 28.331625 0.399057 -70.793859 -178.628107 -39.500828 -178.313331 0.000000 0.000000 0.000000 -1.989843 0.920907 -0.848823 0.993522 1.528932 0.651257 1.129325 4.388335 0.153795 13.289629 6.500018 72.861856 -179.765006 46.240442 -179.223877 0.000000 0.000000 0.000000 
1.228577 13.846275 -2.916954 0.000000 0.000000 0.000000 -90.068639 -3.238614 -1.357220 -26.949155 11.706373 -2.259490 29.783320 -7.096223 -5.289006 5.658618 7.719999 6.723026 10.309327 -0.308096 2.946203 0.000000 0.000000 0.000000 -91.612747 -3.843112 -4.855615 -12.480639 -6.651652 -5.333401 12.150908 0.344893 3.116836 16.857482 -3.454465 24.274923 -1.840672 -1.192901 1.339506 0.000000 0.000000 0.000000 -87.842633 -3.935396 -4.488743 4.019498 2.661135 0.861081 -1.366174 1.115986 -0.105590 0.437382 0.886164 -0.332208 0.000000 0.000000 0.000000 -2.096855 0.588429 0.166046 2.899357 1.520122 0.045882 7.530521 -0.472903 12.779310 0.000000 0.000000 0.000000 -2.892577 1.236240 0.067476 1.110332 -15.531761 -2.443237 -2.875609 0.202984 -4.139222 28.260063 0.350710 -70.763615 -178.627151 -39.650163 -178.308877 0.000000 0.000000 0.000000 -1.986190 0.929796 -0.847722 0.992960 1.511111 0.629724 1.118408 4.385361 0.164851 13.246252 6.503050 72.877982 -179.772642 46.200359 -179.220052 0.000000 0.000000 0.000000 
1.231522 13.846428 -2.900692 0.000000 0.000000 0.000000 -90.062581 -3.231311 -1.359661 -26.989940 11.699225 -2.259597 29.838422 -7.127840 -5.288582 5.654601 7.656636 6.732220 10.315572 -0.309867 2.952634 0.000000 0.000000 0.000000 -91.605493 -3.833141 -4.855424 -12.442492 -6.651446 -5.348440 12.154405 0.315858 3.119610 16.788815 -3.437653 24.340161 -1.814207 -1.195879 1.336523 0.000000 0.000000 0.000000 -87.835516 -3.933395 -4.484947 4.037277 2.670289 0.864835 -1.360737 1.129578 -0.100183 0.431239 0.879106 -0.330705 0.000000 0.000000 0.000000 -2.090885 0.600908 0.167357 2.867543 1.486292 0.074953 7.564568 -0.770464 12.815124 0.000000 0.000000 0.000000 -2.884128 1.245641 0.069885 1.113960 -15.510374 -2.480670 -2.868108 0.202577 -4.130218 28.215520 0.306045 -70.738097 -178.625990 -39.825108 -178.300695 0.000000 0.000000 0.000000 -1.980328 0.939843 -0.845047 0.992367 1.484890 0.598947 1.115057 4.394932 0.180610 13.215392 6.486610 72.886847 -179.782778 46.150492 -179.213932 0.000000 0.000000 0.000000 
1.235366 13.845772 -2.887226 0.000000 0.000000 0.000000 -90.056140 -3.229171 -1.364145 -27.037242 11.691248 -2.260883 29.899863 -7.158868 -5.284945 5.658366 7.592968 6.736317 10.324189 -0.310958 2.955799 0.000000 0.000000 0.000000 -91.594756 -3.826896 -4.855237 -12.408894 -6.649518 -5.365362 12.165884 0.282922 3.120806 16.705032 -3.430771 24.411938 -1.778394 -1.198025 1.333846 0.000000 0.000000 0.000000 -87.827422 -3.933038 -4.481606 4.057149 2.680353 0.866748 -1.354879 1.142185 -0.093929 0.429179 0.878432 -0.328076 0.000000 0.000000 0.000000 -2.086013 0.611325 0.170098 2.830738 1.445235 0.098178 7.594893 -1.040256 12.851900 0.000000 0.000000 0.000000 -2.878729 1.252541 0.072843 1.119477 -15.470624 -2.504234 -2.864294 0.199921 -4.141052 28.177320 0.290612 -70.718242 -178.623804 -39.954674 -178.286297 0.000000 0.000000 0.000000 -1.975885 0.949009 -0.840336 0.992801 1.460287 0.563245 1.115615 4.416756 0.205225 13.197862 6.456124 72.905542 -179.795441 46.116242 -179.205258 0.000000 0.000000 0.000000 
1.240024 13.844040 -2.875347 0.000000 0.000000 0.000000 -90.050061 -3.228802 -1.368506 -27.091291 11.684376 -2.261343 29.969641 -7.184346 -5.280369 5.662566 7.531875 6.738480 10.329030 -0.311416 2.956617 0.000000 0.000000 0.000000 -91.583288 -3.823922 -4.855481 -12.383109 -6.640599 -5.382104 12.183752 0.251781 3.120479 16.614652 -3.429051 24.493967 -1.745404 -1.199024 1.328812 0.000000 0.000000 0.000000 -87.819075 -3.934105 -4.479624 4.078525 2.690924 0.869925 -1.350519 1.151404 -0.087996 0.429860 0.881234 -0.327570 0.000000 0.000000 0.000000 -2.084456 0.618010 0.174267 2.792632 1.404030 0.112231 7.619766 -1.273578 12.882175 0.000000 0.000000 0.000000 -2.878364 1.256612 0.077373 1.125444 -15.416130 -2.515466 -2.854489 0.200114 -4.162029 28.128640 0.311969 -70.706214 -178.624897 -39.991652 -178.271448 0.000000 0.000000 0.000000 -1.975305 0.955027 -0.834448 0.994481 1.445045 0.531694 1.118400 4.452523 0.227130 13.185815 6.416282 72.946120 -179.811738 46.107725 -179.194862 0.000000 0.000000 0.000000 
1.244188 13.842743 -2.865005 0.000000 0.000000 0.000000 -90.044822 -3.228240 -1.371443 -27.150588 11.679356 -2.259992 30.043997 -7.203276 -5.275951 5.661300 7.474958 6.740077 10.328617 -0.311668 2.957578 0.000000 0.000000 0.000000 -91.571807 -3.823610 -4.856781 -12.364294 -6.622664 -5.396018 12.205146 0.226671 3.118599 16.527822 -3.427796 24.586594 -1.724183 -1.199130 1.319723 0.000000 0.000000 0.000000 -87.811958 -3.934751 -4.478816 4.101047 2.701889 0.875916 -1.349049 1.156511 -0.083506 0.427852 0.887188 -0.321890 0.000000 0.000000 0.000000 -2.086854 0.620874 0.178524 2.755700 1.367404 0.116874 7.638171 -1.461813 12.898268 0.000000 0.000000 0.000000 -2.882227 1.257651 0.082519 1.131278 -15.358104 -2.517324 -2.832083 0.200510 -4.184641 28.068464 0.356034 -70.699780 -178.630033 -39.941478 -178.259222 0.000000 0.000000 0.000000 -1.979631 0.957854 -0.828245 0.996701 1.440293 0.507363 1.120236 4.485961 0.241116 13.165435 6.371787 73.008582 -179.829892 46.113155 -179.185956 0.000000 0.000000 0.000000 
